# xmcd
#
# Track frame offsets:
#	150
#	14292
#	32042
#	51112
#	75125
#	94282
#	115730
#	142180
#	162052
#	177390
#	191372
#	202050
#	218240
#	248415
#	275257
#	298630
#
# Disc length: 4396
#
# Revision: 1
# Processed by: cddbd v1.5.1PL0 Copyright (c) Steve Scherf et al.
# Submitted via: CDex 1.50
# Normalized: r0:DSETVAR1
#
DISCID=da112a10
DTITLE=Various Artist - The Complete Master Jazz Piano Series
DYEAR=1992
DGENRE=Jazz
TTITLE0=Jay McShann - Friday Strut
TTITLE1=Jay McShann - Lady Be Good
TTITLE2=Jay McShann - Jay's Boogie Woogie
TTITLE3=Jay McShann - Memories of You
TTITLE4=Jay McShann - You Can Depend On Me
TTITLE5=Jay McShann - Under The Moonlight, Starlight Blue
TTITLE6=Jay McShann - Slow Drag
TTITLE7=Jay McShann - Tenderly
TTITLE8=Teddy Wilson - One O'Clock Jump
TTITLE9=Teddy Wilson - Satin Doll
TTITLE10=Teddy Wilson - Honeysuckle Rose
TTITLE11=Teddy Wilson - Teddy's Blues
TTITLE12=Cliff Smalls - Blues in the Afternoon
TTITLE13=Cliff Smalls - What Is This Thing Called Love
TTITLE14=Cliff Smalls - God Bless The Child
TTITLE15=Cliff Smalls - The Hour of Parting
EXTD=YEAR: 1992
EXTT0=
EXTT1=
EXTT2=
EXTT3=
EXTT4=
EXTT5=
EXTT6=
EXTT7=
EXTT8=
EXTT9=
EXTT10=
EXTT11=
EXTT12=
EXTT13=
EXTT14=
EXTT15=
PLAYORDER=
